<?xml version="1.0" encoding="UTF-8" standalone="no"?>
<!-- Created with Inkscape (http://www.inkscape.org/) -->

<svg
   xmlns:dc="http://purl.org/dc/elements/1.1/"
   xmlns:cc="http://creativecommons.org/ns#"
   xmlns:rdf="http://www.w3.org/1999/02/22-rdf-syntax-ns#"
   xmlns:svg="http://www.w3.org/2000/svg"
   xmlns="http://www.w3.org/2000/svg"
   xmlns:xlink="http://www.w3.org/1999/xlink"
   xmlns:sodipodi="http://sodipodi.sourceforge.net/DTD/sodipodi-0.dtd"
   xmlns:inkscape="http://www.inkscape.org/namespaces/inkscape"
   width="335.13934"
   height="175.56674"
   id="svg2"
   version="1.1"
   inkscape:version="0.48.1 r9760"
   sodipodi:docname="chorro.svg">
  <defs
     id="defs4">
    <filter
       id="filter4869"
       inkscape:label="Apparition"
       inkscape:menu="Blurs"
       inkscape:menu-tooltip="Edges are partly feathered out"
       color-interpolation-filters="sRGB"
       x="0"
       y="0"
       width="1"
       height="1">
      <feGaussianBlur
         id="feGaussianBlur4871"
         result="result6"
         stdDeviation="3"
         in="SourceGraphic" />
      <feColorMatrix
         id="feColorMatrix4873"
         values="1 0 0 0 0 0 1 0 0 0 0 0 1 0 0 0 0 0 1 0 "
         result="result7"
         in="SourceGraphic" />
      <feComposite
         id="feComposite4875"
         in2="result7"
         operator="in"
         in="result6"
         result="fbSourceGraphic" />
      <feColorMatrix
         result="fbSourceGraphicAlpha"
         in="fbSourceGraphic"
         values="0 0 0 -1 0 0 0 0 -1 0 0 0 0 -1 0 0 0 0 1 0"
         id="feColorMatrix4877" />
      <feGaussianBlur
         id="feGaussianBlur4879"
         stdDeviation="3"
         in="fbSourceGraphic" />
      <feColorMatrix
         id="feColorMatrix4881"
         result="fbSourceGraphic"
         values="1 0 0 0 0 0 1 0 0 0 0 0 1 0 0 0 0 0 6 -2.5 " />
      <feColorMatrix
         result="fbSourceGraphicAlpha"
         in="fbSourceGraphic"
         values="0 0 0 -1 0 0 0 0 -1 0 0 0 0 -1 0 0 0 0 1 0"
         id="feColorMatrix4883" />
      <feMorphology
         id="feMorphology4885"
         radius="4"
         in="fbSourceGraphic"
         result="result0" />
      <feGaussianBlur
         id="feGaussianBlur4887"
         in="result0"
         stdDeviation="8"
         result="result91" />
      <feComposite
         id="feComposite4889"
         in2="result91"
         operator="in"
         in="fbSourceGraphic" />
    </filter>
  </defs>
  <sodipodi:namedview
     id="base"
     pagecolor="#ffffff"
     bordercolor="#666666"
     borderopacity="1.0"
     inkscape:pageopacity="0.0"
     inkscape:pageshadow="2"
     inkscape:zoom="0.45706698"
     inkscape:cx="365.55383"
     inkscape:cy="-123.7345"
     inkscape:document-units="px"
     inkscape:current-layer="layer2"
     showgrid="false"
     inkscape:window-width="1024"
     inkscape:window-height="525"
     inkscape:window-x="0"
     inkscape:window-y="25"
     inkscape:window-maximized="1"
     showguides="true"
     inkscape:guide-bbox="true"
     fit-margin-top="0"
     fit-margin-left="0"
     fit-margin-right="0"
     fit-margin-bottom="0">
    <sodipodi:guide
       position="-6.4934103,-493.84239"
       orientation="0,744.09448"
       id="guide4861" />
    <sodipodi:guide
       position="455.14571,147.20151"
       orientation="-1052.3622,0"
       id="guide4863" />
    <sodipodi:guide
       position="737.60107,558.51981"
       orientation="0,-744.09448"
       id="guide4865" />
    <sodipodi:guide
       position="-6.4934103,558.51981"
       orientation="1052.3622,0"
       id="guide4867" />
  </sodipodi:namedview>
  <metadata
     id="metadata7">
    <rdf:RDF>
      <cc:Work
         rdf:about="">
        <dc:format>image/svg+xml</dc:format>
        <dc:type
           rdf:resource="http://purl.org/dc/dcmitype/StillImage" />
        <dc:title></dc:title>
      </cc:Work>
    </rdf:RDF>
  </metadata>
  <g
     inkscape:groupmode="layer"
     id="layer5"
     inkscape:label="Layer"
     transform="translate(-6.4934103,-382.95304)" />
  <g
     inkscape:groupmode="layer"
     id="layer3"
     inkscape:label="fondo"
     style="display:inline"
     transform="translate(-6.4934103,-382.95304)">
    <path
       style="fill:#000000;fill-opacity:1"
       d=""
       id="path3812"
       inkscape:connector-curvature="0" />
    <path
       style="fill:#000000;fill-opacity:1"
       d=""
       id="path3814"
       inkscape:connector-curvature="0" />
  </g>
  <g
     inkscape:label="Layer 1"
     inkscape:groupmode="layer"
     id="layer1"
     style="display:none"
     transform="translate(-6.4934103,-382.95304)">
    <image
       y="0.93363082"
       x="2.857121"
       id="image3109"
       xlink:href="file:///home/randy/Desktop/PJ%20img/img_1726.jpg"
       height="1117.1428"
       width="752.10461" />
  </g>
  <g
     inkscape:groupmode="layer"
     id="layer2"
     inkscape:label="vaca"
     style="display:inline"
     transform="translate(-6.4934103,-382.95304)">
    <path
       style="fill:#000000;fill-opacity:1"
       id="path3311"
       d="m 314.51161,533.48524 c -2.56949,-2.29754 -5.79784,-3.67097 -8.93218,-5.00505 -4.95367,-1.9748 -10.09999,-3.38768 -15.24209,-4.76886 -3.88139,-1.22851 -7.81114,-2.25433 -11.77271,-3.18276 -4.13944,-1.04085 -8.29218,-2.03193 -12.45522,-2.97419 -4.02935,-0.94531 -7.97253,-2.22267 -11.91985,-3.4588 -3.9585,-1.21959 -7.95645,-2.27371 -11.85083,-3.69426 -3.29535,-1.23915 -6.44055,-2.82537 -9.64159,-4.27888 -3.00374,-1.68628 -6.19802,-2.96064 -9.35147,-4.33173 -2.92849,-1.26622 -5.79723,-2.65566 -8.6064,-4.16644 -2.75631,-1.52545 -5.68914,-2.69115 -8.54922,-4.00525 -3.1949,-1.42297 -6.53602,-2.46721 -9.79209,-3.72697 -3.19258,-1.1477 -6.30604,-2.50163 -9.43189,-3.82115 -3.21616,-1.40959 -6.45229,-2.77352 -9.70553,-4.0952 -3.63893,-1.52266 -7.418,-2.6612 -11.18903,-3.80699 -3.73281,-1.29284 -7.43923,-2.6552 -11.14907,-4.01069 -2.56925,-0.97259 -5.06177,-2.15919 -7.72331,-2.86259 -2.25552,-0.55026 -4.52301,-0.95343 -6.83777,-1.13272 -2.83131,-0.45654 -5.64174,-0.97153 -8.49786,-1.25624 -3.17314,-0.3782 -6.32285,-0.90632 -9.49042,-1.32136 -2.73931,-0.25286 -5.44546,-0.80285 -8.1031,-1.5029 -2.88766,-0.84829 -5.85844,-1.20823 -8.81721,-1.68804 -3.0238,-0.3814 -6.043144,-0.79649 -9.071589,-1.14465 -2.273996,-0.20566 -4.533265,-0.24128 -6.780468,-0.64508 -1.481524,-0.28139 -2.987499,-0.35292 -4.49127,-0.38746 -2.908457,-0.0272 2.863152,-0.0204 4.294301,0.008 0.23221,0.005 -0.46291,0.0401 -0.6933,0.0695 -0.754586,0.0962 -1.370164,0.31349 -2.064158,0.61749 -0.233618,0.11006 -0.469978,0.21449 -0.700853,0.3302 -0.44302,0.22202 -1.223814,0.64478 -1.639629,0.90357 -0.343356,0.2137 -0.604207,0.55922 -0.973474,0.72414 -0.04827,0.0216 0.02249,-0.10331 0.03374,-0.15497 0.05072,-0.16962 0.03171,-0.37912 0.152174,-0.50886 0.0675,-0.0727 2.585459,0.48027 2.788016,0.53784 1.993847,0.33493 3.872063,1.06654 5.838218,1.52166 2.14479,0.58723 4.088819,1.68495 6.098592,2.60272 1.86566,0.87173 2.99046,2.49022 3.68035,4.36809 0.44418,2.23986 -0.42337,3.59015 -2.336264,4.64557 -2.28978,0.87777 -4.739077,1.12149 -7.165287,1.29208 -3.490033,0.0993 -6.751696,0.16077 -10.063157,-0.75357 -1.3562,-0.37447 -2.688934,-0.84453 -4.043078,-1.23026 -1.917447,-0.21783 -3.603881,-1.10065 -5.406397,-1.69219 -1.432574,-0.52316 -2.745062,-1.34541 -4.174162,-1.86482 -0.09681,0.0299 -0.389517,0.11071 -0.290425,0.0896 7.403151,-1.57609 5.191391,-2.5098 8.773983,0.94488 1.719561,1.82156 3.081083,3.93025 4.54388,5.95272 1.110712,1.72608 2.109675,3.55861 2.749225,5.51308 0.524274,1.8105 0.796944,3.64096 0.431944,5.49808 -0.549692,1.94598 -1.945256,2.78861 -3.819194,3.18087 -4.416764,0.72228 -8.428988,-0.4479 -12.706969,-0.90611 -2.981578,-0.43826 -5.945433,-0.94821 -8.83658,-1.80934 -3.081528,-0.79206 -6.146605,-1.67727 -9.154985,-2.71586 -2.656548,-0.86821 -5.170719,-2.03602 -7.623275,-3.36547 -2.214351,-1.19816 -4.063004,-2.8971 -5.89269,-4.5983 -1.710063,-1.50473 -3.238633,-3.109 -4.394529,-5.0755 -0.972322,-1.96364 -1.670105,-4.09327 -2.173224,-6.22656 -0.396301,-2.03773 -0.500323,-4.10868 -0.553145,-6.1781 -0.0366,-1.66256 -0.04016,-3.32559 -0.04187,-4.98847 0.02027,-1.70424 0.02541,-3.40874 0.02956,-5.11309 0.04321,-1.82582 0.805316,-3.4859 1.425816,-5.16649 0.104091,-0.25872 0.216957,-0.51409 0.312274,-0.77618 0.211271,-0.58091 0.276654,-0.98722 0.184863,-0.89758 -1.815692,1.77314 8.107942,1.31001 4.959123,1.07221 -1.99492,1.03604 -3.942417,2.12583 -6.02799,2.98096 -2.079136,0.91414 -4.277762,1.41403 -6.519805,1.70331 -2.74832,0.27938 -5.468524,0.2434 -8.254344,0.0321 -0.935046,-0.0709 -2.218434,-1.57817 -2.777914,-2.18475 -1.859568,-1.99723 -2.766143,-4.47199 -3.6450749,-6.99039 -0.6356101,-1.72809 -1.1691962,-3.47478 -1.6390385,-5.25401 -0.5195127,-1.60136 -0.5776378,-3.29293 -0.9065685,-4.92907 -0.5044854,-1.64709 -0.4354462,-3.29516 -0.2831837,-4.9852 0.2073698,-2.21853 0.5418896,-4.4341 1.1340537,-6.58357 0.6637211,-2.04369 1.8930193,-3.82706 3.0761399,-5.59842 1.198863,-1.89403 2.588826,-3.62598 4.257306,-5.12084 2.28696,-1.88073 4.807156,-3.45056 7.236247,-5.13702 2.626975,-1.76367 5.327061,-3.388 8.227797,-4.6532 3.052174,-1.23478 5.97748,-2.73334 8.865197,-4.30759 3.284714,-1.90518 6.773414,-3.42545 10.204274,-5.04354 2.043913,-0.94042 4.048277,-1.96499 6.117408,-2.84961 1.818306,-0.85746 3.713303,-1.48032 5.664701,-1.94543 3.040917,-0.66094 6.980379,-1.60836 9.427486,0.73954 0.686308,0.65848 0.801103,1.06816 1.224902,1.90745 1.00598,2.74339 1.0462,4.9328 0.475517,7.77409 -0.701644,2.8597 -1.625388,5.62188 -3.09371,8.1784 -1.501985,2.17293 -3.172871,4.21912 -4.691401,6.38268 -0.671374,1.08388 -1.552734,2.02255 -2.278104,3.06559 -0.221151,0.318 -0.78397,1.06457 -0.397595,1.09188 0.16937,0.012 0.260467,-0.21789 0.390701,-0.32684 1.97782,-1.5493 0.223454,0.0524 -3.800445,-0.6195 -0.493775,-0.0824 0.972394,-0.2439 1.445367,-0.40793 1.673036,-0.58023 3.245335,-1.41878 4.804939,-2.24399 2.955623,-1.56172 5.591964,-3.61316 8.226734,-5.64905 2.488284,-2.15932 5.270852,-3.81044 8.232898,-5.21959 3.510288,-1.49777 7.296411,-2.05794 11.031067,-2.69096 3.605746,-0.45201 9.082342,-1.83111 12.094452,-0.0536 0.31423,0.18543 0.56626,0.46025 0.84939,0.69038 1.3596,1.64506 1.81216,3.66755 1.98955,5.74014 -0.16231,2.67068 -1.33981,4.56661 -3.18628,6.40942 -2.41767,2.10943 -5.31471,3.54852 -8.022484,5.23777 -2.509939,1.58854 -4.984617,3.26991 -7.135432,5.32619 -1.847836,-0.56496 -3.774604,-0.91729 -5.543508,-1.69489 -0.388706,-0.17087 0.84515,-0.0969 1.259838,-0.18818 0.581817,-0.128 1.150462,-0.3099 1.724713,-0.46843 2.501548,-0.69058 4.991005,-1.42387 7.486743,-2.13506 4.937216,-1.44161 10.00905,-2.317 15.02514,-3.42639 3.44942,-0.79045 6.85649,-1.73945 10.32285,-2.45785 5.49124,-0.89459 11.08878,-0.81226 16.6364,-0.87428 4.59434,-0.0332 9.18672,-0.15462 13.78164,-0.0114 0.77533,0.0242 2.20114,0.14543 2.83527,0.82114 0.28961,0.3086 0.35005,0.77065 0.52507,1.15598 -0.0204,0.4475 0.0335,0.90465 -0.0611,1.34251 -0.50113,2.31855 -2.56437,4.25064 -4.1565,5.85042 -1.98692,2.00555 -4.22392,3.72364 -6.57595,5.2736 -2.51805,1.56787 -5.23251,2.80025 -7.97638,3.91434 -2.73384,1.06354 -5.53505,1.93359 -8.32955,2.81941 -2.22835,3.16736 -8.90206,0.87449 -6.07601,-2.47011 0.70451,-0.83378 4.19684,-1.65809 5.1498,-1.92184 4.5962,-1.22228 9.35278,-1.47677 14.07095,-1.82194 2.19321,-0.16045 7.516,-0.58698 9.68405,-0.75928 7.94365,-0.59387 15.82001,-1.83008 23.70235,-2.94697 3.74711,-0.6267 7.5216,-1.04824 11.31054,-1.30833 3.60623,0.10508 8.03704,-1.60996 10.99509,0.87475 1.49472,2.29401 0.71643,4.11952 -0.76427,6.1642 -2.34742,2.65055 -5.55636,4.32475 -8.71073,5.82675 -3.0221,1.34263 -6.14775,2.42726 -9.2226,3.63854 -3.4087,1.48643 -6.9721,2.53964 -10.52056,3.62886 -3.55737,1.15931 -7.18173,2.08831 -10.78917,3.07316 -2.51936,0.82921 -5.08221,1.52159 -7.60174,2.34808 -1.34413,0.48576 -2.68164,1.00155 -3.9881,1.58237 -0.13691,0.0609 -0.32129,0.33501 -0.39905,0.20693 -0.10323,-0.17001 0.11941,-0.37944 0.17912,-0.56916 1.03267,-2.30863 0.59262,-0.60826 -4.18898,-1.0261 -0.53376,-0.0466 1.07085,-0.0488 1.60435,-0.0983 2.0963,-0.1945 4.17389,-0.56705 6.25057,-0.90227 3.728,-0.48563 7.42666,-1.09453 11.11473,-1.81858 2.8703,-0.44544 5.7334,-0.9421 8.61383,-1.31926 1.69555,-0.22138 3.40358,-0.30217 5.11193,-0.32109 0.28054,-10e-4 0.56107,-0.004 0.84161,-0.004 2.15476,-0.002 4.31003,-0.048 6.46428,-0.001 1.26437,0.0274 2.8023,0.65808 4.05483,0.94666 1.57206,0.29549 3.52959,0.65424 4.63187,1.95355 0.20339,0.23974 0.32161,0.5403 0.48242,0.81045 0.60875,2.21846 -0.81753,3.85965 -2.2768,5.34216 -1.47842,1.43108 -3.36288,2.30965 -5.20761,3.16731 -1.56505,0.76015 -3.30718,1.48786 -4.31922,2.97131 6.4e-4,0.10309 -0.0495,0.21995 0.002,0.30928 0.21898,0.38017 2.19732,0.64656 2.34309,0.68091 2.42657,0.57169 1.68968,0.39839 4.40739,0.95277 7.62557,1.34281 15.30632,2.37172 22.96953,3.48295 4.58549,0.63176 9.09694,1.63236 13.62917,2.53932 1.95643,0.28925 3.86149,0.88282 5.68778,1.6302 1.81261,0.97135 3.69265,1.75434 5.63209,2.4349 1.91842,0.86474 3.38793,0.90728 3.82987,3.25653 -0.0804,0.33593 -0.0856,0.69942 -0.2412,1.00779 -0.88764,1.75883 -3.33864,2.25576 -5.04044,2.691 -2.10757,0.57123 -4.25498,0.93308 -6.42826,1.11686 -4.23916,0.18165 -8.49145,0.0973 -12.73212,0.0915 -1.83202,0.17418 -7.31504,-0.39102 1.18147,0.0367 0.42728,0.0215 -0.85415,0.0546 -1.27958,0.0997 -0.8226,0.0873 -0.82947,0.10877 -1.51811,0.27764 -0.36596,-0.40908 -0.44121,-0.44203 0.14606,-1.47774 0.1098,-0.19365 3.79274,0.79405 4.03003,0.85709 3.54138,0.63151 6.9669,1.71678 10.46369,2.53297 3.55879,0.5708 7.08622,1.31454 10.65098,1.84546 2.9322,0.61808 5.82582,1.32814 8.80654,1.67976 2.43913,0.47501 4.86387,1.12052 7.19017,1.99923 2.46827,0.70556 4.95674,1.34402 7.42887,2.04207 3.13946,0.64308 6.12987,1.7966 9.1502,2.834 2.57991,0.88667 4.87317,2.3782 7.31192,3.56473 2.29799,1.06991 4.3347,2.58925 6.528,3.83353 2.13344,1.19061 4.12663,2.61676 6.03886,4.13262 0.54841,0.72166 0.85183,0.8222 0.41614,1.95014 -0.6703,1.73527 -3.63288,1.45897 -5.03783,1.53509 -5.94587,0.42274 -11.828,-0.15693 -17.71461,-0.82576 -2.21695,-0.27161 -4.44409,-0.42521 -6.67653,-0.46592 -0.25438,-0.002 -1.01751,-0.006 -0.76313,-0.005 1.65465,0.006 3.30931,0.0118 4.96396,0.0177 -0.11258,-0.0102 -0.27856,0.0659 -0.33774,-0.0305 -0.0526,-0.0855 0.27191,-1.01156 0.27832,-1.0173 0.11784,-0.10533 0.31598,0.009 0.47397,0.0139 2.20573,0.953 4.52409,1.59074 6.80103,2.34602 2.6124,0.77966 5.21601,1.56604 7.8371,2.31583 2.03472,0.53909 4.12817,0.92736 6.11036,1.64318 1.48631,0.40832 2.89432,1.00201 4.41664,1.2756 1.52323,0.13805 2.87198,0.9049 4.34991,1.23689 1.65707,0.35894 3.34432,0.70291 4.86546,1.47295 1.48862,0.63987 2.84315,1.53785 4.37749,2.07175 1.52375,0.65887 2.87332,1.62775 4.30981,2.44175 1.4992,1.04024 3.24568,1.60611 4.86533,2.4191 1.88705,0.77382 3.80114,1.50228 5.62696,2.41457 1.77403,0.74655 3.60506,1.36524 5.36923,2.1349 1.63081,0.70215 3.27153,1.35718 4.97248,1.87621 1.64899,0.44784 3.25833,1.13957 4.81003,1.86162 1.95276,0.56491 3.70247,1.61283 5.35217,2.77427 1.79239,1.27779 3.30639,2.8433 4.73148,4.50532 0.82979,0.99497 1.34964,2.32258 0.4384,3.48449 -0.16749,0.21356 -0.39962,0.44138 -0.67021,0.46235 -2.14438,0.1662 -4.30121,0.0598 -6.45181,0.0896 -2.00009,-1.00131 -4.11388,-1.70143 -6.24622,-2.35555 -3.46187,-1.02961 -6.9866,-1.86324 -10.51446,-2.63857 -2.68386,-0.53493 -5.41189,-0.65541 -8.10543,-1.11496 0,0 5.68474,-2.26728 5.68474,-2.26728 l 0,0 c 2.64907,0.43103 5.34126,0.60996 7.94944,1.28275 3.54504,0.85622 7.09805,1.69423 10.59717,2.72527 1.62907,0.49138 1.33103,0.37901 2.85822,0.92172 0.90689,0.32228 1.8634,0.77614 2.8196,0.94265 0.22199,0.0387 0.45011,0.0221 0.67517,0.0332 -1.70765,0.0566 -3.41969,0.035 -5.12296,0.16973 -0.15604,0.0123 0.30771,0.0971 0.42389,0.20204 0.12223,0.11034 0.14092,0.3077 0.26309,0.41811 0.0331,0.0299 0.0945,-0.0561 0.0886,-0.10029 -0.0507,-0.37638 -0.49745,-0.84562 -0.66853,-1.07322 -1.38934,-1.53075 -2.91473,-2.93586 -4.64435,-4.07907 -1.68395,-1.03906 -3.47621,-1.809 -5.33962,-2.46928 -1.56779,-0.61662 -3.09691,-1.32338 -4.7385,-1.73443 -1.68954,-0.60287 -3.33817,-1.29077 -4.98856,-1.99356 -1.81883,-0.70049 -3.63488,-1.4109 -5.41284,-2.21056 -1.85711,-0.82538 -3.72702,-1.61984 -5.59255,-2.42577 -1.70603,-0.75651 -3.41657,-1.50211 -4.97032,-2.55142 -1.35846,-0.84436 -2.76807,-1.61412 -4.25535,-2.20906 -1.45304,-0.69741 -2.86118,-1.49174 -4.36433,-2.08182 -1.57349,-0.51241 -3.19792,-0.85018 -4.79635,-1.27422 -1.43355,-0.4682 -2.86365,-0.91546 -4.35476,-1.16733 -1.48545,-0.4339 -2.94069,-0.96509 -4.42365,-1.40879 -1.98617,-0.54607 -3.9655,-1.11478 -5.95794,-1.63812 -2.63669,-0.73225 -5.22473,-1.62098 -7.85464,-2.37749 -2.39214,-0.76049 -4.81377,-1.4818 -7.0866,-2.55978 -0.23322,-0.20428 -0.54958,-0.34155 -0.69965,-0.61284 -0.29459,-0.53256 -0.65471,-2.44882 0.52546,-2.54294 2.1371,-0.17043 4.28662,-0.10256 6.43031,-0.13197 0.25365,-0.003 0.50687,0.0222 0.7603,0.0333 2.1647,0.13434 4.31681,0.39673 6.46418,0.69884 1.9427,0.24993 3.88136,0.49633 5.83776,0.61637 0.72226,0.0443 2.8848,-0.0119 2.16884,0.0931 -1.03122,0.15116 -2.08413,0.0474 -3.12637,0.0473 -0.65116,-4e-5 1.30193,-0.0316 1.9529,-0.0474 0.73208,-0.029 3.04972,-0.32464 3.76536,-0.15423 0.16494,0.0393 0.80001,0.5916 0.65928,0.85387 -0.0745,0.13885 -0.21845,-0.22713 -0.32768,-0.3407 -1.84828,-1.46775 -3.81383,-2.78013 -5.86781,-3.94343 -2.14021,-1.30578 -4.28154,-2.61056 -6.52836,-3.72884 -2.33401,-1.24023 -4.65186,-2.53062 -7.16366,-3.38672 -2.99227,-1.07619 -6.02792,-1.999 -9.12741,-2.71819 -2.53562,-0.66347 -5.09368,-1.26945 -7.57631,-2.11357 -2.29628,-0.74034 -4.62706,-1.40378 -7.0255,-1.71672 -2.93163,-0.48349 -5.79527,-1.26956 -8.72771,-1.7475 -3.55799,-0.62686 -7.11102,-1.28896 -10.65655,-1.98086 -3.49493,-0.90461 -6.98332,-1.82678 -10.5331,-2.50087 -1.49953,-0.33006 -6.63661,-0.64469 -4.4576,-3.53372 1.03524,-0.42502 2.02147,-0.67545 3.15367,-0.71095 3.27131,-0.10255 6.53605,-0.13491 9.80635,-0.12166 -9.27873,-0.0162 -0.41115,0.0148 1.6251,-0.0558 2.15292,-0.0796 4.30023,-0.27429 6.39746,-0.79721 1.06795,-0.26785 2.19052,-0.43199 3.22728,-0.81014 0.31167,-0.11368 0.87033,-0.43376 1.2486,-0.48913 0.0661,-0.01 0.12821,0.0375 0.19232,0.0562 -0.23642,-0.71995 -2.72481,-1.23172 -3.3574,-1.62914 -1.9039,-0.76471 -3.74597,-1.65304 -5.64838,-2.41546 -1.80737,-0.58589 -3.62601,-1.1185 -5.49723,-1.46696 -4.25775,-1.04885 -8.52934,-2.03519 -12.86399,-2.72556 -7.77616,-1.21307 -15.58914,-2.17177 -23.36118,-3.40018 -2.10446,-0.4037 -6.06907,-0.70197 -7.38735,-2.73074 -0.47992,-0.73858 -0.30714,-1.30785 -0.24829,-2.10624 0.97065,-1.99295 2.69779,-3.01322 4.63027,-3.97889 1.72758,-0.78545 3.50385,-1.53947 5.0614,-2.63103 0.75583,-0.68895 2.35375,-1.79665 2.12074,-2.97207 -1.26359,-1.15814 -3.12777,-1.24122 -4.71385,-1.64758 -0.98374,-0.23596 -1.96068,-0.49692 -2.97507,-0.56308 -0.32568,-0.0212 -1.30541,-0.01 -0.97904,-0.0109 1.55857,-0.005 7.01046,-9e-5 3.9669,-0.003 -1.71179,0.005 -3.42571,-0.007 -5.13362,0.12979 -2.91814,0.25222 -5.80106,0.73305 -8.69737,1.15518 -3.75638,0.64795 -7.48521,1.43001 -11.28716,1.78638 -4.80673,0.78524 -9.53432,2.03228 -14.47137,1.21925 -0.48319,-0.0796 -0.59469,-0.77816 -0.89204,-1.16724 0.0393,-0.39297 -0.0392,-0.81651 0.11781,-1.1789 0.32891,-0.75932 3.88139,-1.80014 4.70769,-2.18485 2.52536,-0.95907 5.16232,-1.56693 7.73232,-2.39448 3.58736,-1.13353 7.34014,-1.72185 10.88734,-3.01349 3.48657,-1.09511 7.02309,-2.05848 10.3686,-3.54698 3.05969,-1.24545 6.17904,-2.33042 9.24726,-3.55141 3.00505,-1.31005 6.05377,-2.75835 8.3755,-5.13394 0.74363,-0.81499 2.14916,-2.48507 0.71789,-3.34955 -1.83197,-0.49374 -5.07431,-0.15556 3.71831,-0.21222 0.31211,-0.002 -0.62425,-0.003 -0.93637,-0.003 -1.09855,10e-4 -1.11549,0.006 -2.26444,0.025 -3.91568,0.1206 -7.81945,0.44447 -11.6988,1.00117 -8.07365,1.03437 -16.16017,2.02695 -24.26267,2.79488 -1.61887,0.13374 -3.23774,0.26749 -4.85661,0.40124 -1.56133,0.14382 -3.12167,0.2988 -4.68398,0.43148 -4.48051,0.38049 -9.00716,0.61514 -13.37065,1.80044 -1.83769,0.47736 -1.96075,0.45076 -3.60389,1.07248 -0.31196,0.11804 -0.5947,0.4732 -0.91911,0.39564 -0.2613,-0.0625 -0.28072,-0.46039 -0.38587,-0.70763 -0.98751,-2.322 1.89371,-0.8022 -5.29899,-0.49735 2.87862,-0.55892 5.65333,-1.62378 8.41656,-2.58612 2.69554,-0.97245 5.26094,-2.25887 7.79259,-3.59677 2.27814,-1.53184 4.61396,-2.99154 6.55811,-4.96222 1.50335,-1.44262 3.26474,-3.0159 3.90477,-5.06635 -0.88763,-0.5449 -2.97644,-0.41504 -2.4597,-0.52051 0.92675,-0.18914 3.6832,0.31801 2.83572,-0.10198 -1.92299,-0.95298 -4.53832,1.01802 -6.43852,0.007 -5.35481,0.0756 -10.73934,0.0834 -16.05369,0.81817 -3.51076,0.6491 -6.95764,1.57126 -10.4298,2.39364 -5.07266,1.01263 -10.18817,1.86388 -15.174018,3.25563 -2.409881,0.68465 -4.799339,1.42465 -7.179023,2.20829 -0.536616,0.17671 -1.071718,0.35898 -1.599617,0.56024 -0.383787,0.14631 -0.727308,0.53919 -1.134033,0.48195 -2.215806,-0.31183 -4.352703,-1.04025 -6.529054,-1.56037 0.60388,-1.06887 1.651736,-1.52345 2.632588,-2.25787 1.691731,-1.26668 3.287445,-2.67254 5.119375,-3.74299 2.559115,-1.70992 5.268164,-3.18545 7.750196,-5.00534 1.658372,-1.4592 2.729736,-2.61372 2.947626,-4.92275 -0.17438,-1.55968 -0.39145,-3.24824 -1.760973,-4.23094 -2.008913,-0.76169 -4.611422,-0.22708 2.920343,-0.47282 0.42967,-0.014 -0.85992,-0.0486 -1.28935,-0.0287 -0.58815,0.0272 -2.686665,0.30962 -3.204381,0.37603 -3.654152,0.554 -7.335923,1.07223 -10.834629,2.31414 -2.926149,1.2462 -5.677765,2.77016 -8.101833,4.85305 -2.663269,2.12811 -5.380739,4.21054 -8.365956,5.87353 -1.56591,0.91266 -3.150166,1.72928 -4.788955,2.50387 -0.475523,0.22476 -0.911201,0.59328 -1.432795,0.66095 -2.261697,0.29346 -4.549435,0.4581 -6.829607,0.41112 -0.420157,-0.009 -0.747999,-0.38331 -1.121998,-0.57497 -0.169735,-0.38162 -0.435028,-0.73383 -0.509204,-1.14486 -0.337289,-1.86898 2.106305,-3.6135 2.952952,-5.07105 1.503355,-2.12405 3.016955,-4.23518 4.615523,-6.28947 1.528836,-2.3247 2.523216,-4.87722 3.116881,-7.59938 0.446105,-2.22968 0.45019,-4.471 -0.563667,-6.56578 -0.494908,-0.66117 -0.929399,-1.13675 -1.782888,-1.31076 -0.246732,-0.0503 -1.005884,-0.0315 -0.754279,-0.0416 7.796215,-0.31267 5.636628,-0.18079 3.708607,-0.0509 -1.874731,0.53416 -3.819417,0.79467 -5.580879,1.69919 -2.089222,0.93884 -4.20219,1.82503 -6.296679,2.75754 -3.442993,1.56505 -6.960718,3.00759 -10.239537,4.90132 -2.844747,1.65122 -5.724711,3.28177 -8.791335,4.48853 -0.873444,0.39485 -1.782832,0.70698 -2.655075,1.10447 -1.938937,0.88359 -3.675925,2.18908 -5.519878,3.24148 -2.364939,1.66541 -4.798384,3.23705 -7.075263,5.02306 -1.645727,1.30698 -2.988717,2.88522 -4.117851,4.66086 -1.064326,1.67264 -2.31845,3.25423 -3.05026,5.11103 -0.619479,2.02068 -0.902554,4.14435 -1.058349,6.24757 -0.09891,1.54957 -0.131572,3.04191 0.322016,4.55155 0.27409,1.6004 0.364685,3.23627 0.869797,4.79315 0.483364,1.73121 0.979189,3.45362 1.55312,5.15818 0.75843,2.29912 1.642345,4.50475 3.481791,6.18154 0.693396,0.51418 0.918151,0.79706 1.730224,1.0138 0.264836,0.0707 1.090099,0.0912 0.816152,0.10054 -9.042342,0.30872 -5.069209,-0.005 -3.079943,-0.002 2.198559,-0.12786 4.388856,-0.40121 6.452656,-1.22006 2.027334,-0.80127 4.061545,-1.61299 5.798388,-2.96846 3.816803,-3.31181 9.003383,-0.8722 6.663967,3.07673 -0.544095,1.50496 -1.333604,2.95614 -1.427346,4.58314 0.0023,1.70584 0.0043,3.4117 0.01407,5.11752 -0.01222,1.64826 -0.03545,3.29661 -0.0208,4.94492 0.03988,1.94683 0.106136,3.90821 0.523307,5.81733 0.506652,1.96499 1.068968,3.96382 2.121377,5.71347 1.158524,1.77296 2.694722,3.21301 4.246078,4.64246 1.769419,1.59887 3.624063,3.10888 5.762971,4.19469 2.413944,1.22151 4.883457,2.31628 7.464148,3.14312 3.0207,0.97087 6.068297,1.86161 9.148133,2.62604 2.890443,0.72471 5.827731,1.22816 8.788426,1.56814 1.264423,0.16492 2.521496,0.39967 3.786864,0.55235 1.987679,0.23985 6.830813,0.19029 -2.300105,0.19591 1.242152,0.17222 2.640138,0.15123 3.292031,-1.09616 0.417955,-1.51668 0.05295,-3.0797 -0.36823,-4.56461 -0.675097,-1.78538 -1.569874,-3.48406 -2.643607,-5.0629 -1.364963,-1.97365 -2.685326,-4.00439 -4.481343,-5.62528 -2.126007,-1.93459 0.413247,0.36715 -1.584323,-1.41742 -0.671153,-0.59959 -1.122434,-1.0402 -1.089268,-1.05626 5.272338,-2.55328 4.17833,-3.23191 6.091742,-1.8077 1.305307,0.70054 2.696037,1.2356 4.075658,1.76954 1.713226,0.68033 3.464151,1.17418 5.245412,1.64826 1.297682,0.40706 2.591106,0.84305 3.923508,1.12647 0.480851,0.10228 0.965629,0.18757 1.452506,0.25562 0.512036,0.0716 2.056741,0.10996 1.542453,0.16298 -1.338885,0.13802 -2.691228,0.0628 -4.036843,0.0942 2.295835,-0.10185 4.626767,-0.2062 6.84042,-0.87759 1.174503,-0.20705 2.420774,-0.58846 2.031746,-2.03369 -0.675111,-1.53928 -1.814354,-2.52555 -3.376074,-3.16091 -1.908276,-0.94481 -3.850607,-1.84119 -5.939632,-2.31108 -1.970225,-0.53091 -3.933318,-1.071 -5.932452,-1.48562 -0.978335,-0.21224 -2.728684,-0.50432 -3.225125,-1.55247 -0.146647,-0.30962 -0.161237,-0.66595 -0.241855,-0.99892 0.05734,-0.26955 0.05151,-0.56082 0.172011,-0.80867 0.548825,-1.12883 2.570736,-1.77988 3.524581,-2.5178 0.97142,-0.46286 0.485053,-0.21172 1.457334,-0.75683 2.627219,-1.26409 5.774987,-0.55652 8.603339,-0.54582 1.517003,0.10408 3.021943,0.30075 4.516849,0.58161 2.19083,0.30713 4.415661,0.3146 6.604876,0.65352 3.01057,0.40193 6.03127,0.73049 9.03049,1.21204 3.01769,0.43928 6.00043,1.00758 8.95209,1.78379 2.6484,0.58818 5.31281,1.08704 8.0139,1.36718 3.13567,0.47478 6.27117,0.94676 9.4242,1.29539 2.88065,0.34711 5.73324,0.87929 8.61853,1.18994 2.3487,0.29106 4.67311,0.76972 6.94532,1.43475 2.58537,0.89249 5.07642,2.02644 7.62745,3.01011 3.62129,1.42761 7.29484,2.72114 10.987,3.95265 3.81856,1.15547 7.63006,2.35717 11.30605,3.91912 3.27099,1.32944 6.52767,2.69379 9.76898,4.09411 3.106,1.29899 6.20238,2.62521 9.36836,3.77349 3.31181,1.18799 6.63743,2.35816 9.83992,3.82275 2.919,1.29021 5.88314,2.49316 8.65856,4.08304 2.7832,1.47169 5.63077,2.81145 8.52182,4.0586 3.15419,1.3724 6.28152,2.78694 9.33306,4.37659 3.14515,1.48365 6.31747,2.92267 9.57106,4.15396 3.8641,1.36684 7.81919,2.4294 11.72669,3.66225 3.94751,1.20258 7.90004,2.40783 11.92125,3.34281 4.15594,1.00804 8.32737,1.94818 12.48112,2.9658 3.93925,0.93047 7.8122,2.0803 11.67636,3.28324 5.14766,1.46671 10.29529,2.98348 15.26678,4.9806 3.40607,1.47438 6.86907,3.00247 9.72447,5.42771 0,0 -6.17842,1.33019 -6.17842,1.33019 z"
       inkscape:connector-curvature="0" />
    <path
       style="fill:#000000;fill-opacity:1"
       id="path3333"
       d="m 116.79709,507.93476 c 0.68893,0.003 1.37846,0.038 2.06678,0.009 3.09534,-0.13044 6.18198,-0.42399 9.27611,-0.58038 9.13433,-0.46166 18.27352,-0.68884 27.41596,-0.91494 9.74215,-0.21117 19.48579,-0.33627 29.22928,-0.46365 0,0 0.39051,0.17481 0.39051,0.17481 l 0,0 c -9.76086,0.10489 -19.52187,0.21299 -29.28089,0.43907 -8.10382,0.21123 -11.62874,0.27028 -19.56987,0.59868 -6.02243,0.24905 -12.02866,0.75445 -18.04881,1.01177 -0.70161,0.03 -1.4045,0.006 -2.10675,0.009 0,0 0.62768,-0.28341 0.62768,-0.28341 z"
       inkscape:connector-curvature="0" />
    <path
       style="fill:#000000;fill-opacity:1"
       id="path3339"
       d="m 224.50135,543.32139 c 11.3558,5.20785 23.70596,7.65572 35.84146,10.29815 9.46429,2.03543 19.04623,3.40181 28.62631,4.74285 0,0 -0.387,0.1574 -0.387,0.1574 l 0,0 c -9.56933,-1.35984 -19.14073,-2.74128 -28.5993,-4.7621 -12.22999,-2.64363 -24.66488,-5.09507 -36.14514,-10.24262 0,0 0.66367,-0.19368 0.66367,-0.19368 z"
       inkscape:connector-curvature="0" />
    <path
       style="fill:#000000;fill-opacity:1"
       id="path3341"
       d="m 243.57686,529.20642 c 9.27377,10.10786 19.75717,18.97597 30.49949,27.46528 0,0 -0.46535,0.11536 -0.46535,0.11536 l 0,0 c -10.73899,-8.55845 -21.22352,-17.46487 -30.68068,-27.4482 0,0 0.64654,-0.13244 0.64654,-0.13244 z"
       inkscape:connector-curvature="0" />
    <path
       style="fill:#000000;fill-opacity:1"
       id="path3343"
       d="m 273.86982,470.45966 c 0.56466,0.27246 1.13616,0.53117 1.69398,0.81738 3.2014,1.64261 2.98911,1.69004 6.60419,3.4357 5.51858,2.66482 11.20447,5.00112 16.81495,7.46217 9.89872,4.14057 19.54456,8.8469 29.17742,13.56368 0,0 -0.50874,0.15782 -0.50874,0.15782 l 0,0 c -9.60902,-4.73877 -19.2413,-9.44645 -29.13449,-13.5709 -5.63487,-2.46217 -11.34381,-4.7961 -16.89466,-7.44571 -3.71985,-1.77561 -3.38404,-1.76367 -6.67993,-3.4076 -0.57004,-0.28433 -1.15402,-0.53979 -1.73102,-0.80968 0,0 0.6583,-0.20286 0.6583,-0.20286 z"
       inkscape:connector-curvature="0" />
    <path
       style="fill:#000000;fill-opacity:1"
       id="path3367"
       d="m 214.95649,439.4674 c 3.83684,0.95236 7.75463,1.57522 11.65864,2.18541 5.45067,0.80855 10.95934,1.07224 16.46087,1.23182 3.71505,0.1812 7.27059,1.06455 10.75179,2.31329 1.47351,0.58015 2.95053,1.15053 4.42122,1.73781 0,0 -0.63013,0.20991 -0.63013,0.20991 l 0,0 c -1.46807,-0.58606 -2.94026,-1.16121 -4.41383,-1.73333 -3.46878,-1.23154 -7.0135,-2.09712 -10.71067,-2.27074 -5.49934,-0.17188 -11.00546,-0.44546 -16.45358,-1.25784 -3.93095,-0.61325 -7.8725,-1.23921 -11.74234,-2.17017 0,0 0.65803,-0.24616 0.65803,-0.24616 z"
       inkscape:connector-curvature="0" />
    <path
       style="fill:#000000;fill-opacity:1"
       id="path3369"
       d="m 211.46051,425.07528 c 4.74169,-0.11436 9.46226,0.18481 14.17898,0.63978 6.03227,0.7659 12.07859,1.48509 18.04257,2.68632 3.01492,0.74273 5.79356,2.13852 8.6639,3.28009 0,0 -0.63063,0.20983 -0.63063,0.20983 l 0,0 c -2.85046,-1.15068 -5.61938,-2.53301 -8.62314,-3.26081 -5.95219,-1.19774 -11.98443,-1.9309 -18.00637,-2.68233 -4.74518,-0.44611 -9.4946,-0.73053 -14.26335,-0.58479 0,0 0.63804,-0.28809 0.63804,-0.28809 z"
       inkscape:connector-curvature="0" />
    <path
       style="fill:#000000;fill-opacity:1"
       id="path3371"
       d="m 86.345198,387.81327 c 2.560353,-1.61123 5.212534,-2.38846 8.162434,-2.97552 11.919968,-1.62924 24.013388,-1.53649 36.021808,-1.69794 20.88547,-0.18147 41.7721,-0.15484 62.65817,-0.15455 17.06688,0.19442 34.15424,-0.3907 51.21257,0.37832 2.92565,0.13189 5.84671,0.35111 8.77007,0.52666 14.51811,0.7724 28.93434,2.69353 43.32429,4.68582 6.64846,0.69674 13.21737,1.89863 19.78756,3.09549 0.44153,0.0431 0.88307,0.0862 1.3246,0.12928 0,0 -0.61822,0.25845 -0.61822,0.25845 l 0,0 c -0.43939,-0.049 -0.87879,-0.0981 -1.31818,-0.1471 -6.52343,-1.22547 -13.04938,-2.43285 -19.65565,-3.14069 -14.35726,-2.01398 -28.7436,-3.93566 -43.23196,-4.7138 -2.91752,-0.17692 -5.83274,-0.39733 -8.75258,-0.53077 -16.82924,-0.76909 -33.68783,-0.21005 -50.52595,-0.39873 -20.86034,6.4e-4 -41.72137,-0.0214 -62.58092,0.18762 -11.94423,0.17645 -23.97335,0.10554 -35.826671,1.75131 -2.92498,0.57502 -5.537218,1.33003 -8.071979,2.93078 0,0 -0.679392,-0.18463 -0.679392,-0.18463 z"
       inkscape:connector-curvature="0" />
    <path
       style="fill:#000000;fill-opacity:1"
       id="path3413"
       d="m 69.341916,431.36045 c 2.953995,-1.41179 6.315209,-2.0009 9.521321,-2.5898 6.550646,-1.05962 13.181092,-1.06555 19.794481,-1.05557 3.460552,0.33918 5.385882,0.91125 7.134742,4.01535 0.96286,2.28811 0.43194,4.68848 -1.28657,6.48644 -0.42427,0.44387 -0.9361,0.79488 -1.40414,1.19232 -4.074012,2.61457 -8.887632,3.24553 -13.591701,3.80505 -1.509711,0.11685 -3.619858,1.2559 -1.874079,-1.8333 0.06563,-0.11613 1.182739,0.16298 1.860346,0.314 2.641457,0.36876 5.091897,1.38383 7.397502,2.68527 1.717375,1.3306 2.962822,3.13982 2.620834,5.4128 -0.06999,0.46515 -0.254206,0.90577 -0.381309,1.35866 -1.398913,3.01972 -4.357571,4.50183 -7.2169,5.86364 -1.573982,0.76647 -3.227384,1.32649 -4.901949,1.82169 0,0 -5.715823,-2.07047 -5.715823,-2.07047 l 0,0 c 1.661705,-0.47742 3.361419,-0.83778 4.947212,-1.55049 2.505286,-1.12137 5.288951,-2.16291 6.834468,-4.57301 0.113803,-0.29789 0.275563,-0.58164 0.34141,-0.89365 0.34884,-1.65295 -1.08146,-2.85788 -2.32385,-3.62233 -2.296835,-1.1299 -4.713252,-1.88125 -7.261414,-2.19799 -0.444642,-0.0622 -2.058696,-0.27273 -2.097788,-0.34202 -1.812749,-3.2127 0.562656,-2.40523 2.461687,-2.59914 4.502604,-0.37238 9.118482,-0.82034 13.155599,-3.02337 1.987698,-1.37036 3.632705,-2.79166 2.380946,-5.31743 -1.549784,-2.18996 -3.871183,-2.42243 -6.403104,-2.56006 1.0983,-0.021 2.196438,-0.0537 3.294899,-0.0629 0.753331,-0.006 -1.506474,0.0294 -2.259423,0.0542 -3.40514,0.11231 -6.812839,0.31723 -10.18817,0.79696 -1.848069,0.31369 -2.530962,0.38658 -4.305839,0.84632 -1.324487,0.34308 -2.594973,0.872 -3.91231,1.2274 -0.164711,0.0444 -0.3377,0.0487 -0.50655,0.0731 0,0 -6.114528,-1.6617 -6.114528,-1.6617 z"
       inkscape:connector-curvature="0" />
    <path
       style="fill:#000000;fill-opacity:1"
       id="path3415"
       d="m 136.08177,446.77481 c 1.51614,-0.0239 2.92832,-0.0372 4.35621,0.51424 1.66496,0.76542 2.68774,2.22803 3.41088,3.85425 0.81653,2.00847 0.50749,3.89659 -0.30528,5.83645 -0.43875,0.98967 -1.10252,1.80398 -1.81784,2.59883 0,0 -6.01112,-1.34513 -6.01112,-1.34513 l 0,0 c 0.71863,-0.55006 1.34093,-1.12088 1.74555,-1.95578 0.73796,-1.48437 0.98767,-2.82127 0.22963,-4.37401 -0.68793,-1.25003 -1.59953,-2.1807 -3.05209,-2.46213 -1.43285,-0.17193 -2.881,-0.0678 -4.32167,-0.0634 0,0 5.76573,-2.60332 5.76573,-2.60332 z"
       inkscape:connector-curvature="0" />
    <path
       style="fill:#000000;fill-opacity:1"
       id="path3417"
       d="m 125.36748,433.20338 c 1.84881,-0.025 2.83988,0.22286 3.89525,1.82379 0.94242,2.26047 0.92664,4.73526 0.62538,7.12378 -0.49153,2.19902 -1.62094,4.09617 -3.02956,5.81905 0,0 -5.98392,-1.18579 -5.98392,-1.18579 l 0,0 c 1.35152,-1.39988 2.48544,-2.92541 2.96772,-4.85309 0.27238,-1.86247 0.37829,-4.04465 -0.68254,-5.69224 -1.07843,-0.65544 -2.34711,-0.44132 -3.55805,-0.43218 0,0 5.76572,-2.60332 5.76572,-2.60332 z"
       inkscape:connector-curvature="0" />
    <path
       style="fill:#000000;fill-opacity:1"
       id="path3419"
       d="m 163.29919,464.26049 c 1.41755,0.92129 3.50611,0.85906 5.14654,0.98898 3.07311,0.397 6.17498,0.43013 9.07088,1.62222 2.46001,1.9851 1.44122,4.24058 0.0408,6.52211 -1.69559,2.74257 -4.41267,4.12984 -7.36363,5.13204 -3.72089,0.93766 -7.97569,1.60459 -11.6684,0.40993 -0.30514,-0.14539 -0.61028,-0.29078 -0.91542,-0.43617 0,0 5.82003,-1.98384 5.82003,-1.98384 l 0,0 c 0.27884,0.0705 0.55767,0.14097 0.83651,0.21145 2.40692,0.22262 1.28208,0.0885 -3.87528,0.13649 -0.29815,0.003 0.59635,-0.009 0.89425,-0.0212 1.09034,-0.0459 2.17812,-0.15368 3.24882,-0.37099 2.73654,-0.6506 5.41942,-1.53923 7.04683,-4.00224 0.89451,-1.33577 2.20037,-2.71726 0.18754,-3.62242 -2.8636,-0.86079 -5.87608,-0.93339 -8.83021,-1.28266 -2.12441,-0.24353 -4.5553,-0.3971 -5.89591,-2.30192 0,0 6.25662,-1.00174 6.25662,-1.00174 z"
       inkscape:connector-curvature="0" />
    <path
       style="fill:#000000;fill-opacity:1"
       id="path3421"
       d="m 125.56746,447.68475 c -2.92541,1.68166 -6.47649,1.98746 -9.76856,2.39973 -2.82856,0.27897 -1.43227,0.15668 -4.18865,0.36934 0,0 -5.34105,-2.29806 -5.34105,-2.29806 l 0,0 c 2.76921,-0.15211 1.37006,-0.0594 4.19732,-0.28039 3.04333,-0.32832 6.09757,-0.71945 8.99678,-1.75168 0,0 6.10416,1.56106 6.10416,1.56106 z"
       inkscape:connector-curvature="0" />
    <path
       style="fill:#000000;fill-opacity:1"
       id="path3423"
       d="m 142.83289,458.2836 c -2.21463,1.83014 -5.00007,2.76435 -7.67543,3.69921 -1.44372,0.47139 -2.92726,0.79913 -4.40277,1.15103 0,0 -5.62847,-2.12293 -5.62847,-2.12293 l 0,0 c 1.47751,-0.35493 2.97079,-0.61138 4.44206,-0.99361 2.46317,-0.76208 4.94598,-1.5894 7.08618,-3.06389 0,0 6.17843,1.33019 6.17843,1.33019 z"
       inkscape:connector-curvature="0" />
    <path
       style="fill:#deaa87;fill-opacity:1"
       d=""
       id="path3553"
       inkscape:connector-curvature="0" />
    <path
       style="fill:#deaa87;fill-opacity:1"
       d=""
       id="path3597"
       inkscape:connector-curvature="0" />
    <path
       style="fill:#ffe6d5;fill-opacity:1"
       d=""
       id="path3619"
       inkscape:connector-curvature="0" />
    <path
       style="fill:#f4d7d7;fill-opacity:1"
       d=""
       id="path3693"
       inkscape:connector-curvature="0" />
    <path
       style="fill:#f4d7d7;fill-opacity:1"
       d=""
       id="path3697"
       inkscape:connector-curvature="0" />
    <path
       style="fill:#f4d7d7;fill-opacity:1"
       d=""
       id="path3733"
       inkscape:connector-curvature="0" />
    <path
       style="fill:#f4d7d7;fill-opacity:1"
       d=""
       id="path3735"
       inkscape:connector-curvature="0" />
    <path
       style="fill:#ffffff;fill-opacity:1"
       d=""
       id="path3971"
       inkscape:connector-curvature="0" />
    <path
       style="fill:#ffffff;fill-opacity:1"
       d="m 46.786244,412.65548 c 0,-1.11117 1.363706,-2.02031 3.030457,-2.02031 1.666752,0 3.030458,0.90914 3.030458,2.02031 0,1.11116 -1.363706,2.0203 -3.030458,2.0203 -1.666751,0 -3.030457,-0.90914 -3.030457,-2.0203 z"
       id="path3973"
       inkscape:connector-curvature="0" />
    <path
       style="fill:#ffffff;fill-opacity:1"
       d="m 64.846634,488.69005 c -12.284605,-3.31271 -22.512203,-9.48775 -25.73199,-15.53602 -1.662325,-3.12262 -2.291971,-9.21381 -1.711408,-16.55613 0.505165,-6.38879 0.122289,-12.10805 -0.850838,-12.70947 -0.973126,-0.60143 -4.636454,0.38915 -8.140729,2.20128 -5.692065,2.94348 -6.697822,2.96837 -9.432775,0.23341 -1.683753,-1.68375 -3.486804,-7.48895 -4.00678,-12.90045 -0.82021,-8.53609 -0.210476,-10.71251 4.60417,-16.43439 4.931104,-5.86028 37.913463,-24.53585 43.332031,-24.53585 3.631104,0 2.211212,6.92172 -2.990088,14.57612 -2.77792,4.08807 -5.050763,8.39023 -5.050763,9.56035 0,4.31897 10.829801,1.92784 21.918842,-4.8395 6.278906,-3.83185 13.91632,-7.56695 16.972031,-8.30024 8.998483,-2.15938 6.897823,4.04829 -3.879056,11.46297 -8.148038,5.606 -8.905818,6.68583 -5.555839,7.91705 2.161633,0.79446 12.376566,-0.68194 23.071958,-3.33469 10.55609,-2.61819 23.28401,-4.74475 28.28427,-4.72569 l 9.09137,0.0347 -5.65173,4.9725 c -3.10845,2.73487 -8.10871,5.55891 -11.11168,6.27564 -9.01549,2.15178 -11.05644,4.65557 -7.83959,9.61745 4.00515,6.17782 2.08209,9.1496 -6.84444,10.57701 -4.33128,0.6926 -7.38337,2.05486 -6.7824,3.02724 1.4585,2.3599 11.45332,2.24689 17.89527,-0.20233 2.85025,-1.08367 5.18228,-1.18971 5.18228,-0.23564 0,0.95407 2.04556,2.31022 4.54569,3.01366 4.45142,1.25246 4.46436,1.34114 0.62401,4.27624 -2.15692,1.64849 -5.61984,2.99725 -7.69538,2.99725 -2.07553,0 -3.21182,0.90914 -2.52508,2.02031 1.58561,2.56556 -0.14589,2.53497 -17.35258,-0.30666 l -14.090301,-2.32696 3.970705,-4.23903 c 3.045986,-3.25182 3.489506,-5.0955 1.904473,-7.91666 -1.666691,-2.96649 -1.26306,-3.88766 2.087373,-4.76382 5.26424,-1.37662 7.44559,-7.95625 4.01013,-12.09573 -2.08707,-2.51476 -5.605312,-2.97983 -17.006948,-2.24812 -15.723443,1.00907 -22.471688,3.36038 -16.079532,5.60262 2.059015,0.72227 7.589519,0.43315 12.290011,-0.64247 15.679928,-3.58808 20.125149,2.61682 4.826028,6.73644 -9.156376,2.46556 -10.257155,5.03238 -2.945156,6.86757 6.267239,1.57298 6.453448,4.34195 0.505076,7.51052 -5.140733,2.73836 -9.436566,7.73325 -9.532197,11.08336 -0.03534,1.238 4.239511,3.89453 9.499666,5.9034 11.379718,4.34595 8.045999,6.47371 -4.596824,2.93394 -4.87732,-1.36556 -10.342265,-1.91706 -12.144325,-1.22554 -2.824754,1.08396 -2.555863,2.11369 1.950381,7.46906 4.991992,5.93264 6.932656,12.11616 3.711621,11.8263 -0.833376,-0.075 -5.661406,-1.25443 -10.728957,-2.62097 l 0,0 z"
       id="path3975"
       inkscape:connector-curvature="0" />
    <path
       style="fill:#ffffff;fill-opacity:1"
       d="m 265.18206,512.48061 c -9.33334,-2.75862 -26.60695,-9.42491 -38.38579,-14.81397 -11.77884,-5.38906 -28.00137,-12.31629 -36.05007,-15.39384 -11.65133,-4.45508 -14.17885,-6.14397 -12.40088,-8.28629 1.22821,-1.4799 1.74913,-3.95194 1.15761,-5.49343 -1.18974,-3.10041 -18.26489,-6.38098 -21.80966,-4.19019 -3.30209,2.0408 1.98816,4.85276 9.20011,4.89019 4.50226,0.0234 5.38989,0.60095 3.62931,2.36153 -1.76059,1.76059 -4.45353,1.52648 -11.01066,-0.95718 -4.77404,-1.80828 -14.1349,-3.9411 -20.8019,-4.73961 l -12.12184,-1.45183 8.41855,-1.71732 c 6.7338,-1.37363 8.82292,-2.87731 10.4392,-7.51377 1.86116,-5.33893 3.04747,-5.90643 15.02898,-7.18954 7.15458,-0.76619 14.73029,-1.00104 16.83492,-0.52188 3.30016,0.75134 3.06226,1.24095 -1.72925,3.55893 -3.05571,1.47826 -5.55584,4.34277 -5.55584,6.36558 0,3.95874 0.98193,4.28816 23.23351,7.79435 21.84848,3.44267 30.51583,6.07096 27.11613,8.22268 -1.57985,0.99992 -6.35749,1.83196 -10.61697,1.84898 -14.16962,0.0566 -6.88034,4.91367 13.96293,9.30392 26.16093,5.51032 41.30994,10.02703 46.30951,13.8073 3.78814,2.86428 3.43048,3.05919 -5.7242,3.11943 -14.50885,0.0955 -11.07081,4.14395 8.91927,10.50294 21.44915,6.82313 14.76102,7.2331 -8.04297,0.49302 l 0,0 z"
       id="path3977"
       inkscape:connector-curvature="0" />
    <path
       style="fill:#ffd5d5;fill-opacity:1;stroke:none"
       d=""
       id="path4855"
       inkscape:connector-curvature="0" />
  </g>
</svg>
